# xmcd CD database file
#
# Track frame offsets:
#	150
#	12412
#	21502
#	33185
#	45932
#	59570
#	68957
#	81145
#	94040
#	104055
#	120975
#	134800
#	145025
#	156007
#	169007
#	180740
#	190815
#	201430
#	211952
#	221915
#
# Disc length: 3086 seconds
#
# Revision: 2
# Processed by: cddbd v1.5.1PL0 Copyright (c) Steve Scherf et al.
# Submitted via: CDex 1.51
#
DISCID=270c0c14
DTITLE=Patsy Cline - The love collection
DYEAR=1998
DGENRE=Country
TTITLE0=Crazy
TTITLE1=Walking after midnight
TTITLE2=Sweet dreams
TTITLE3=I fall to pieces
TTITLE4=She's got you
TTITLE5=Back in baby's arms
TTITLE6=He called me baby
TTITLE7=When you need a laugh
TTITLE8=Heartaches
TTITLE9=Faded love
TTITLE10=So wrong
TTITLE11=Strange
TTITLE12=Leavin' on your mind
TTITLE13=You are stronger than me
TTITLE14=When I get thru' with you
TTITLE15=I love you so much it hurts
TTITLE16=Your cheating heart
TTITLE17=San Antonio rose
TTITLE18=Seven lonely days
TTITLE19=Blue moon of Kentuckey
EXTD=YEAR: 1998
EXTT0=
EXTT1=
EXTT2=
EXTT3=
EXTT4=
EXTT5=
EXTT6=
EXTT7=
EXTT8=
EXTT9=
EXTT10=
EXTT11=
EXTT12=
EXTT13=
EXTT14=
EXTT15=
EXTT16=
EXTT17=
EXTT18=
EXTT19=
PLAYORDER=
